%TF.GenerationSoftware,KiCad,Pcbnew,(5.99.0-11441-g1a5e63bcab)*%
%TF.CreationDate,2022-01-11T09:27:26+01:00*%
%TF.ProjectId,Slider_potentiometer,536c6964-6572-45f7-906f-74656e74696f,V1.1.1.*%
%TF.SameCoordinates,PX5f5e100PYe5d5e40*%
%TF.FileFunction,Profile,NP*%
%FSLAX46Y46*%
G04 Gerber Fmt 4.6, Leading zero omitted, Abs format (unit mm)*
G04 Created by KiCad (PCBNEW (5.99.0-11441-g1a5e63bcab)) date 2022-01-11 09:27:26*
%MOMM*%
%LPD*%
G01*
G04 APERTURE LIST*
%TA.AperFunction,Profile*%
%ADD10C,0.100000*%
%TD*%
G04 APERTURE END LIST*
D10*
X0Y199600000D02*
X172200000Y199600000D01*
X172200000Y199600000D02*
X172200000Y205600000D01*
X172200000Y205600000D02*
X0Y205600000D01*
X0Y205600000D02*
X0Y199600000D01*
X0Y0D02*
X172200000Y0D01*
X172200000Y0D02*
X172200000Y-6000000D01*
X172200000Y-6000000D02*
X0Y-6000000D01*
X0Y-6000000D02*
X0Y0D01*
X0Y0D02*
X172200000Y0D01*
X172200000Y0D02*
X172200000Y199600000D01*
X172200000Y199600000D02*
X0Y199600000D01*
X0Y199600000D02*
X0Y0D01*
X172200000Y198600000D02*
X172200000Y178600000D01*
X172200000Y198600000D02*
G75*
G03*
X171200000Y199600000I-1000000J0D01*
G01*
X86200000Y198600000D02*
G75*
G02*
X87200000Y199600000I1000000J0D01*
G01*
X87200000Y199600000D02*
X171200000Y199600000D01*
X86000000Y198600000D02*
G75*
G03*
X85000000Y199600000I-1000000J0D01*
G01*
X86200000Y178600000D02*
X86200000Y198600000D01*
X172200000Y178600000D02*
G75*
G02*
X171200000Y177600000I-1000000J0D01*
G01*
X86200000Y178600000D02*
G75*
G03*
X87200000Y177600000I1000000J0D01*
G01*
X86000000Y198600000D02*
X86000000Y178600000D01*
X85000000Y177600000D02*
X1000000Y177600000D01*
X1000000Y199600000D02*
X85000000Y199600000D01*
X0Y178600000D02*
X0Y198600000D01*
X171200000Y177600000D02*
X87200000Y177600000D01*
X0Y198600000D02*
G75*
G02*
X1000000Y199600000I1000000J0D01*
G01*
X86000000Y178600000D02*
G75*
G02*
X85000000Y177600000I-1000000J0D01*
G01*
X0Y178600000D02*
G75*
G03*
X1000000Y177600000I1000000J0D01*
G01*
X172200000Y176400000D02*
X172200000Y156400000D01*
X172200000Y176400000D02*
G75*
G03*
X171200000Y177400000I-1000000J0D01*
G01*
X86200000Y176400000D02*
G75*
G02*
X87200000Y177400000I1000000J0D01*
G01*
X87200000Y177400000D02*
X171200000Y177400000D01*
X86000000Y176400000D02*
G75*
G03*
X85000000Y177400000I-1000000J0D01*
G01*
X86200000Y156400000D02*
X86200000Y176400000D01*
X172200000Y156400000D02*
G75*
G02*
X171200000Y155400000I-1000000J0D01*
G01*
X86200000Y156400000D02*
G75*
G03*
X87200000Y155400000I1000000J0D01*
G01*
X86000000Y176400000D02*
X86000000Y156400000D01*
X85000000Y155400000D02*
X1000000Y155400000D01*
X1000000Y177400000D02*
X85000000Y177400000D01*
X0Y156400000D02*
X0Y176400000D01*
X171200000Y155400000D02*
X87200000Y155400000D01*
X0Y176400000D02*
G75*
G02*
X1000000Y177400000I1000000J0D01*
G01*
X86000000Y156400000D02*
G75*
G02*
X85000000Y155400000I-1000000J0D01*
G01*
X0Y156400000D02*
G75*
G03*
X1000000Y155400000I1000000J0D01*
G01*
X172200000Y154200000D02*
X172200000Y134200000D01*
X172200000Y154200000D02*
G75*
G03*
X171200000Y155200000I-1000000J0D01*
G01*
X86200000Y154200000D02*
G75*
G02*
X87200000Y155200000I1000000J0D01*
G01*
X87200000Y155200000D02*
X171200000Y155200000D01*
X86000000Y154200000D02*
G75*
G03*
X85000000Y155200000I-1000000J0D01*
G01*
X86200000Y134200000D02*
X86200000Y154200000D01*
X172200000Y134200000D02*
G75*
G02*
X171200000Y133200000I-1000000J0D01*
G01*
X86200000Y134200000D02*
G75*
G03*
X87200000Y133200000I1000000J0D01*
G01*
X86000000Y154200000D02*
X86000000Y134200000D01*
X85000000Y133200000D02*
X1000000Y133200000D01*
X1000000Y155200000D02*
X85000000Y155200000D01*
X0Y134200000D02*
X0Y154200000D01*
X171200000Y133200000D02*
X87200000Y133200000D01*
X0Y154200000D02*
G75*
G02*
X1000000Y155200000I1000000J0D01*
G01*
X86000000Y134200000D02*
G75*
G02*
X85000000Y133200000I-1000000J0D01*
G01*
X0Y134200000D02*
G75*
G03*
X1000000Y133200000I1000000J0D01*
G01*
X172200000Y132000000D02*
X172200000Y112000000D01*
X172200000Y132000000D02*
G75*
G03*
X171200000Y133000000I-1000000J0D01*
G01*
X86200000Y132000000D02*
G75*
G02*
X87200000Y133000000I1000000J0D01*
G01*
X87200000Y133000000D02*
X171200000Y133000000D01*
X86000000Y132000000D02*
G75*
G03*
X85000000Y133000000I-1000000J0D01*
G01*
X86200000Y112000000D02*
X86200000Y132000000D01*
X172200000Y112000000D02*
G75*
G02*
X171200000Y111000000I-1000000J0D01*
G01*
X86200000Y112000000D02*
G75*
G03*
X87200000Y111000000I1000000J0D01*
G01*
X86000000Y132000000D02*
X86000000Y112000000D01*
X85000000Y111000000D02*
X1000000Y111000000D01*
X1000000Y133000000D02*
X85000000Y133000000D01*
X0Y112000000D02*
X0Y132000000D01*
X171200000Y111000000D02*
X87200000Y111000000D01*
X0Y132000000D02*
G75*
G02*
X1000000Y133000000I1000000J0D01*
G01*
X86000000Y112000000D02*
G75*
G02*
X85000000Y111000000I-1000000J0D01*
G01*
X0Y112000000D02*
G75*
G03*
X1000000Y111000000I1000000J0D01*
G01*
X172200000Y109800000D02*
X172200000Y89800000D01*
X172200000Y109800000D02*
G75*
G03*
X171200000Y110800000I-1000000J0D01*
G01*
X86200000Y109800000D02*
G75*
G02*
X87200000Y110800000I1000000J0D01*
G01*
X87200000Y110800000D02*
X171200000Y110800000D01*
X86000000Y109800000D02*
G75*
G03*
X85000000Y110800000I-1000000J0D01*
G01*
X86200000Y89800000D02*
X86200000Y109800000D01*
X172200000Y89800000D02*
G75*
G02*
X171200000Y88800000I-1000000J0D01*
G01*
X86200000Y89800000D02*
G75*
G03*
X87200000Y88800000I1000000J0D01*
G01*
X86000000Y109800000D02*
X86000000Y89800000D01*
X85000000Y88800000D02*
X1000000Y88800000D01*
X1000000Y110800000D02*
X85000000Y110800000D01*
X0Y89800000D02*
X0Y109800000D01*
X171200000Y88800000D02*
X87200000Y88800000D01*
X0Y109800000D02*
G75*
G02*
X1000000Y110800000I1000000J0D01*
G01*
X86000000Y89800000D02*
G75*
G02*
X85000000Y88800000I-1000000J0D01*
G01*
X0Y89800000D02*
G75*
G03*
X1000000Y88800000I1000000J0D01*
G01*
X172200000Y87600000D02*
X172200000Y67600000D01*
X172200000Y87600000D02*
G75*
G03*
X171200000Y88600000I-1000000J0D01*
G01*
X86200000Y87600000D02*
G75*
G02*
X87200000Y88600000I1000000J0D01*
G01*
X87200000Y88600000D02*
X171200000Y88600000D01*
X86000000Y87600000D02*
G75*
G03*
X85000000Y88600000I-1000000J0D01*
G01*
X86200000Y67600000D02*
X86200000Y87600000D01*
X172200000Y67600000D02*
G75*
G02*
X171200000Y66600000I-1000000J0D01*
G01*
X86200000Y67600000D02*
G75*
G03*
X87200000Y66600000I1000000J0D01*
G01*
X86000000Y87600000D02*
X86000000Y67600000D01*
X85000000Y66600000D02*
X1000000Y66600000D01*
X1000000Y88600000D02*
X85000000Y88600000D01*
X0Y67600000D02*
X0Y87600000D01*
X171200000Y66600000D02*
X87200000Y66600000D01*
X0Y87600000D02*
G75*
G02*
X1000000Y88600000I1000000J0D01*
G01*
X86000000Y67600000D02*
G75*
G02*
X85000000Y66600000I-1000000J0D01*
G01*
X0Y67600000D02*
G75*
G03*
X1000000Y66600000I1000000J0D01*
G01*
X172200000Y65400000D02*
X172200000Y45400000D01*
X172200000Y65400000D02*
G75*
G03*
X171200000Y66400000I-1000000J0D01*
G01*
X86200000Y65400000D02*
G75*
G02*
X87200000Y66400000I1000000J0D01*
G01*
X87200000Y66400000D02*
X171200000Y66400000D01*
X86000000Y65400000D02*
G75*
G03*
X85000000Y66400000I-1000000J0D01*
G01*
X86200000Y45400000D02*
X86200000Y65400000D01*
X172200000Y45400000D02*
G75*
G02*
X171200000Y44400000I-1000000J0D01*
G01*
X86200000Y45400000D02*
G75*
G03*
X87200000Y44400000I1000000J0D01*
G01*
X86000000Y65400000D02*
X86000000Y45400000D01*
X85000000Y44400000D02*
X1000000Y44400000D01*
X1000000Y66400000D02*
X85000000Y66400000D01*
X0Y45400000D02*
X0Y65400000D01*
X171200000Y44400000D02*
X87200000Y44400000D01*
X0Y65400000D02*
G75*
G02*
X1000000Y66400000I1000000J0D01*
G01*
X86000000Y45400000D02*
G75*
G02*
X85000000Y44400000I-1000000J0D01*
G01*
X0Y45400000D02*
G75*
G03*
X1000000Y44400000I1000000J0D01*
G01*
X172200000Y43200000D02*
X172200000Y23200000D01*
X172200000Y43200000D02*
G75*
G03*
X171200000Y44200000I-1000000J0D01*
G01*
X86200000Y43200000D02*
G75*
G02*
X87200000Y44200000I1000000J0D01*
G01*
X87200000Y44200000D02*
X171200000Y44200000D01*
X86000000Y43200000D02*
G75*
G03*
X85000000Y44200000I-1000000J0D01*
G01*
X86200000Y23200000D02*
X86200000Y43200000D01*
X172200000Y23200000D02*
G75*
G02*
X171200000Y22200000I-1000000J0D01*
G01*
X86200000Y23200000D02*
G75*
G03*
X87200000Y22200000I1000000J0D01*
G01*
X86000000Y43200000D02*
X86000000Y23200000D01*
X85000000Y22200000D02*
X1000000Y22200000D01*
X1000000Y44200000D02*
X85000000Y44200000D01*
X0Y23200000D02*
X0Y43200000D01*
X171200000Y22200000D02*
X87200000Y22200000D01*
X0Y43200000D02*
G75*
G02*
X1000000Y44200000I1000000J0D01*
G01*
X86000000Y23200000D02*
G75*
G02*
X85000000Y22200000I-1000000J0D01*
G01*
X0Y23200000D02*
G75*
G03*
X1000000Y22200000I1000000J0D01*
G01*
X172200000Y21000000D02*
G75*
G03*
X171200000Y22000000I-1000000J0D01*
G01*
X172200000Y21000000D02*
X172200000Y1000000D01*
X171200000Y0D02*
X87200000Y0D01*
X87200000Y22000000D02*
X171200000Y22000000D01*
X86200000Y1000000D02*
X86200000Y21000000D01*
X86200000Y21000000D02*
G75*
G02*
X87200000Y22000000I1000000J0D01*
G01*
X172200000Y1000000D02*
G75*
G02*
X171200000Y0I-1000000J0D01*
G01*
X86200000Y1000000D02*
G75*
G03*
X87200000Y0I1000000J0D01*
G01*
X0Y1000000D02*
G75*
G03*
X1000000Y0I1000000J0D01*
G01*
X86000000Y1000000D02*
G75*
G02*
X85000000Y0I-1000000J0D01*
G01*
X0Y21000000D02*
G75*
G02*
X1000000Y22000000I1000000J0D01*
G01*
X86000000Y21000000D02*
G75*
G03*
X85000000Y22000000I-1000000J0D01*
G01*
X86000000Y21000000D02*
X86000000Y1000000D01*
X1000000Y22000000D02*
X85000000Y22000000D01*
X0Y1000000D02*
X0Y21000000D01*
X85000000Y0D02*
X1000000Y0D01*
M02*
