%TF.GenerationSoftware,KiCad,Pcbnew,(5.99.0-11441-g1a5e63bcab)*%
%TF.CreationDate,2022-01-11T09:27:26+01:00*%
%TF.ProjectId,Slider_potentiometer,536c6964-6572-45f7-906f-74656e74696f,V1.1.1.*%
%TF.SameCoordinates,PX5f5e100PYe5d5e40*%
%TF.FileFunction,Soldermask,Top*%
%TF.FilePolarity,Negative*%
%FSLAX46Y46*%
G04 Gerber Fmt 4.6, Leading zero omitted, Abs format (unit mm)*
G04 Created by KiCad (PCBNEW (5.99.0-11441-g1a5e63bcab)) date 2022-01-11 09:27:26*
%MOMM*%
%LPD*%
G01*
G04 APERTURE LIST*
G04 Aperture macros list*
%AMRoundRect*
0 Rectangle with rounded corners*
0 $1 Rounding radius*
0 $2 $3 $4 $5 $6 $7 $8 $9 X,Y pos of 4 corners*
0 Add a 4 corners polygon primitive as box body*
4,1,4,$2,$3,$4,$5,$6,$7,$8,$9,$2,$3,0*
0 Add four circle primitives for the rounded corners*
1,1,$1+$1,$2,$3*
1,1,$1+$1,$4,$5*
1,1,$1+$1,$6,$7*
1,1,$1+$1,$8,$9*
0 Add four rect primitives between the rounded corners*
20,1,$1+$1,$2,$3,$4,$5,0*
20,1,$1+$1,$4,$5,$6,$7,0*
20,1,$1+$1,$6,$7,$8,$9,0*
20,1,$1+$1,$8,$9,$2,$3,0*%
G04 Aperture macros list end*
%ADD10C,3.200000*%
%ADD11RoundRect,0.100000X0.500000X-0.330000X0.500000X0.330000X-0.500000X0.330000X-0.500000X-0.330000X0*%
%ADD12RoundRect,0.100000X-0.500000X0.330000X-0.500000X-0.330000X0.500000X-0.330000X0.500000X0.330000X0*%
%ADD13C,1.900000*%
%ADD14C,1.724000*%
%ADD15C,1.524000*%
G04 APERTURE END LIST*
D10*
%TO.C,FD1*%
X4000000Y201600000D03*
%TD*%
%TO.C,FD1*%
X168200000Y201600000D03*
%TD*%
%TO.C,FD1*%
X168200000Y-2000000D03*
%TD*%
%TO.C,FD1*%
X4000000Y-2000000D03*
%TD*%
D11*
%TO.C,C2*%
X9810000Y178870000D03*
X9810000Y180330000D03*
%TD*%
D10*
%TO.C,H1*%
X89200000Y180600000D03*
%TD*%
D12*
%TO.C,C1*%
X116550000Y180330000D03*
X116550000Y178870000D03*
%TD*%
D11*
%TO.C,C2*%
X96010000Y178870000D03*
X96010000Y180330000D03*
%TD*%
D13*
%TO.C,K2*%
X98660000Y179100000D03*
X101200000Y179100000D03*
X103740000Y179100000D03*
%TD*%
D10*
%TO.C,H2*%
X89200000Y196600000D03*
%TD*%
D13*
%TO.C,K1*%
X108820000Y179100000D03*
X111360000Y179100000D03*
X113900000Y179100000D03*
%TD*%
D10*
%TO.C,FD2*%
X164200000Y179600000D03*
%TD*%
%TO.C,H3*%
X169200000Y196600000D03*
%TD*%
%TO.C,H4*%
X169200000Y180600000D03*
%TD*%
%TO.C,FD1*%
X98200000Y191600000D03*
%TD*%
D14*
%TO.C,R1*%
X94200000Y191850000D03*
X94200000Y186850000D03*
D15*
X104100000Y190600000D03*
X151300000Y190600000D03*
D14*
X94200000Y194350000D03*
X94200000Y189350000D03*
X164200000Y191850000D03*
X164200000Y186850000D03*
%TD*%
D13*
%TO.C,K2*%
X12460000Y179100000D03*
X15000000Y179100000D03*
X17540000Y179100000D03*
%TD*%
D10*
%TO.C,H3*%
X83000000Y196600000D03*
%TD*%
%TO.C,H4*%
X83000000Y180600000D03*
%TD*%
%TO.C,FD1*%
X12000000Y191600000D03*
%TD*%
D14*
%TO.C,R1*%
X8000000Y191850000D03*
X8000000Y186850000D03*
D15*
X17900000Y190600000D03*
X65100000Y190600000D03*
D14*
X8000000Y194350000D03*
X8000000Y189350000D03*
X78000000Y191850000D03*
X78000000Y186850000D03*
%TD*%
D10*
%TO.C,H1*%
X3000000Y180600000D03*
%TD*%
%TO.C,FD2*%
X78000000Y179600000D03*
%TD*%
D13*
%TO.C,K1*%
X22620000Y179100000D03*
X25160000Y179100000D03*
X27700000Y179100000D03*
%TD*%
D10*
%TO.C,H2*%
X3000000Y196600000D03*
%TD*%
D12*
%TO.C,C1*%
X30350000Y180330000D03*
X30350000Y178870000D03*
%TD*%
D11*
%TO.C,C2*%
X9810000Y156670000D03*
X9810000Y158130000D03*
%TD*%
D10*
%TO.C,H1*%
X89200000Y158400000D03*
%TD*%
D12*
%TO.C,C1*%
X116550000Y158130000D03*
X116550000Y156670000D03*
%TD*%
D11*
%TO.C,C2*%
X96010000Y156670000D03*
X96010000Y158130000D03*
%TD*%
D13*
%TO.C,K2*%
X98660000Y156900000D03*
X101200000Y156900000D03*
X103740000Y156900000D03*
%TD*%
D10*
%TO.C,H2*%
X89200000Y174400000D03*
%TD*%
D13*
%TO.C,K1*%
X108820000Y156900000D03*
X111360000Y156900000D03*
X113900000Y156900000D03*
%TD*%
D10*
%TO.C,FD2*%
X164200000Y157400000D03*
%TD*%
%TO.C,H3*%
X169200000Y174400000D03*
%TD*%
%TO.C,H4*%
X169200000Y158400000D03*
%TD*%
%TO.C,FD1*%
X98200000Y169400000D03*
%TD*%
D14*
%TO.C,R1*%
X94200000Y169650000D03*
X94200000Y164650000D03*
D15*
X104100000Y168400000D03*
X151300000Y168400000D03*
D14*
X94200000Y172150000D03*
X94200000Y167150000D03*
X164200000Y169650000D03*
X164200000Y164650000D03*
%TD*%
D13*
%TO.C,K2*%
X12460000Y156900000D03*
X15000000Y156900000D03*
X17540000Y156900000D03*
%TD*%
D10*
%TO.C,H3*%
X83000000Y174400000D03*
%TD*%
%TO.C,H4*%
X83000000Y158400000D03*
%TD*%
%TO.C,FD1*%
X12000000Y169400000D03*
%TD*%
D14*
%TO.C,R1*%
X8000000Y169650000D03*
X8000000Y164650000D03*
D15*
X17900000Y168400000D03*
X65100000Y168400000D03*
D14*
X8000000Y172150000D03*
X8000000Y167150000D03*
X78000000Y169650000D03*
X78000000Y164650000D03*
%TD*%
D10*
%TO.C,H1*%
X3000000Y158400000D03*
%TD*%
%TO.C,FD2*%
X78000000Y157400000D03*
%TD*%
D13*
%TO.C,K1*%
X22620000Y156900000D03*
X25160000Y156900000D03*
X27700000Y156900000D03*
%TD*%
D10*
%TO.C,H2*%
X3000000Y174400000D03*
%TD*%
D12*
%TO.C,C1*%
X30350000Y158130000D03*
X30350000Y156670000D03*
%TD*%
D11*
%TO.C,C2*%
X9810000Y134470000D03*
X9810000Y135930000D03*
%TD*%
D10*
%TO.C,H1*%
X89200000Y136200000D03*
%TD*%
D12*
%TO.C,C1*%
X116550000Y135930000D03*
X116550000Y134470000D03*
%TD*%
D11*
%TO.C,C2*%
X96010000Y134470000D03*
X96010000Y135930000D03*
%TD*%
D13*
%TO.C,K2*%
X98660000Y134700000D03*
X101200000Y134700000D03*
X103740000Y134700000D03*
%TD*%
D10*
%TO.C,H2*%
X89200000Y152200000D03*
%TD*%
D13*
%TO.C,K1*%
X108820000Y134700000D03*
X111360000Y134700000D03*
X113900000Y134700000D03*
%TD*%
D10*
%TO.C,FD2*%
X164200000Y135200000D03*
%TD*%
%TO.C,H3*%
X169200000Y152200000D03*
%TD*%
%TO.C,H4*%
X169200000Y136200000D03*
%TD*%
%TO.C,FD1*%
X98200000Y147200000D03*
%TD*%
D14*
%TO.C,R1*%
X94200000Y147450000D03*
X94200000Y142450000D03*
D15*
X104100000Y146200000D03*
X151300000Y146200000D03*
D14*
X94200000Y149950000D03*
X94200000Y144950000D03*
X164200000Y147450000D03*
X164200000Y142450000D03*
%TD*%
D13*
%TO.C,K2*%
X12460000Y134700000D03*
X15000000Y134700000D03*
X17540000Y134700000D03*
%TD*%
D10*
%TO.C,H3*%
X83000000Y152200000D03*
%TD*%
%TO.C,H4*%
X83000000Y136200000D03*
%TD*%
%TO.C,FD1*%
X12000000Y147200000D03*
%TD*%
D14*
%TO.C,R1*%
X8000000Y147450000D03*
X8000000Y142450000D03*
D15*
X17900000Y146200000D03*
X65100000Y146200000D03*
D14*
X8000000Y149950000D03*
X8000000Y144950000D03*
X78000000Y147450000D03*
X78000000Y142450000D03*
%TD*%
D10*
%TO.C,H1*%
X3000000Y136200000D03*
%TD*%
%TO.C,FD2*%
X78000000Y135200000D03*
%TD*%
D13*
%TO.C,K1*%
X22620000Y134700000D03*
X25160000Y134700000D03*
X27700000Y134700000D03*
%TD*%
D10*
%TO.C,H2*%
X3000000Y152200000D03*
%TD*%
D12*
%TO.C,C1*%
X30350000Y135930000D03*
X30350000Y134470000D03*
%TD*%
D11*
%TO.C,C2*%
X9810000Y112270000D03*
X9810000Y113730000D03*
%TD*%
D10*
%TO.C,H1*%
X89200000Y114000000D03*
%TD*%
D12*
%TO.C,C1*%
X116550000Y113730000D03*
X116550000Y112270000D03*
%TD*%
D11*
%TO.C,C2*%
X96010000Y112270000D03*
X96010000Y113730000D03*
%TD*%
D13*
%TO.C,K2*%
X98660000Y112500000D03*
X101200000Y112500000D03*
X103740000Y112500000D03*
%TD*%
D10*
%TO.C,H2*%
X89200000Y130000000D03*
%TD*%
D13*
%TO.C,K1*%
X108820000Y112500000D03*
X111360000Y112500000D03*
X113900000Y112500000D03*
%TD*%
D10*
%TO.C,FD2*%
X164200000Y113000000D03*
%TD*%
%TO.C,H3*%
X169200000Y130000000D03*
%TD*%
%TO.C,H4*%
X169200000Y114000000D03*
%TD*%
%TO.C,FD1*%
X98200000Y125000000D03*
%TD*%
D14*
%TO.C,R1*%
X94200000Y125250000D03*
X94200000Y120250000D03*
D15*
X104100000Y124000000D03*
X151300000Y124000000D03*
D14*
X94200000Y127750000D03*
X94200000Y122750000D03*
X164200000Y125250000D03*
X164200000Y120250000D03*
%TD*%
D13*
%TO.C,K2*%
X12460000Y112500000D03*
X15000000Y112500000D03*
X17540000Y112500000D03*
%TD*%
D10*
%TO.C,H3*%
X83000000Y130000000D03*
%TD*%
%TO.C,H4*%
X83000000Y114000000D03*
%TD*%
%TO.C,FD1*%
X12000000Y125000000D03*
%TD*%
D14*
%TO.C,R1*%
X8000000Y125250000D03*
X8000000Y120250000D03*
D15*
X17900000Y124000000D03*
X65100000Y124000000D03*
D14*
X8000000Y127750000D03*
X8000000Y122750000D03*
X78000000Y125250000D03*
X78000000Y120250000D03*
%TD*%
D10*
%TO.C,H1*%
X3000000Y114000000D03*
%TD*%
%TO.C,FD2*%
X78000000Y113000000D03*
%TD*%
D13*
%TO.C,K1*%
X22620000Y112500000D03*
X25160000Y112500000D03*
X27700000Y112500000D03*
%TD*%
D10*
%TO.C,H2*%
X3000000Y130000000D03*
%TD*%
D12*
%TO.C,C1*%
X30350000Y113730000D03*
X30350000Y112270000D03*
%TD*%
D11*
%TO.C,C2*%
X9810000Y90070000D03*
X9810000Y91530000D03*
%TD*%
D10*
%TO.C,H1*%
X89200000Y91800000D03*
%TD*%
D12*
%TO.C,C1*%
X116550000Y91530000D03*
X116550000Y90070000D03*
%TD*%
D11*
%TO.C,C2*%
X96010000Y90070000D03*
X96010000Y91530000D03*
%TD*%
D13*
%TO.C,K2*%
X98660000Y90300000D03*
X101200000Y90300000D03*
X103740000Y90300000D03*
%TD*%
D10*
%TO.C,H2*%
X89200000Y107800000D03*
%TD*%
D13*
%TO.C,K1*%
X108820000Y90300000D03*
X111360000Y90300000D03*
X113900000Y90300000D03*
%TD*%
D10*
%TO.C,FD2*%
X164200000Y90800000D03*
%TD*%
%TO.C,H3*%
X169200000Y107800000D03*
%TD*%
%TO.C,H4*%
X169200000Y91800000D03*
%TD*%
%TO.C,FD1*%
X98200000Y102800000D03*
%TD*%
D14*
%TO.C,R1*%
X94200000Y103050000D03*
X94200000Y98050000D03*
D15*
X104100000Y101800000D03*
X151300000Y101800000D03*
D14*
X94200000Y105550000D03*
X94200000Y100550000D03*
X164200000Y103050000D03*
X164200000Y98050000D03*
%TD*%
D13*
%TO.C,K2*%
X12460000Y90300000D03*
X15000000Y90300000D03*
X17540000Y90300000D03*
%TD*%
D10*
%TO.C,H3*%
X83000000Y107800000D03*
%TD*%
%TO.C,H4*%
X83000000Y91800000D03*
%TD*%
%TO.C,FD1*%
X12000000Y102800000D03*
%TD*%
D14*
%TO.C,R1*%
X8000000Y103050000D03*
X8000000Y98050000D03*
D15*
X17900000Y101800000D03*
X65100000Y101800000D03*
D14*
X8000000Y105550000D03*
X8000000Y100550000D03*
X78000000Y103050000D03*
X78000000Y98050000D03*
%TD*%
D10*
%TO.C,H1*%
X3000000Y91800000D03*
%TD*%
%TO.C,FD2*%
X78000000Y90800000D03*
%TD*%
D13*
%TO.C,K1*%
X22620000Y90300000D03*
X25160000Y90300000D03*
X27700000Y90300000D03*
%TD*%
D10*
%TO.C,H2*%
X3000000Y107800000D03*
%TD*%
D12*
%TO.C,C1*%
X30350000Y91530000D03*
X30350000Y90070000D03*
%TD*%
D11*
%TO.C,C2*%
X9810000Y67870000D03*
X9810000Y69330000D03*
%TD*%
D10*
%TO.C,H1*%
X89200000Y69600000D03*
%TD*%
D12*
%TO.C,C1*%
X116550000Y69330000D03*
X116550000Y67870000D03*
%TD*%
D11*
%TO.C,C2*%
X96010000Y67870000D03*
X96010000Y69330000D03*
%TD*%
D13*
%TO.C,K2*%
X98660000Y68100000D03*
X101200000Y68100000D03*
X103740000Y68100000D03*
%TD*%
D10*
%TO.C,H2*%
X89200000Y85600000D03*
%TD*%
D13*
%TO.C,K1*%
X108820000Y68100000D03*
X111360000Y68100000D03*
X113900000Y68100000D03*
%TD*%
D10*
%TO.C,FD2*%
X164200000Y68600000D03*
%TD*%
%TO.C,H3*%
X169200000Y85600000D03*
%TD*%
%TO.C,H4*%
X169200000Y69600000D03*
%TD*%
%TO.C,FD1*%
X98200000Y80600000D03*
%TD*%
D14*
%TO.C,R1*%
X94200000Y80850000D03*
X94200000Y75850000D03*
D15*
X104100000Y79600000D03*
X151300000Y79600000D03*
D14*
X94200000Y83350000D03*
X94200000Y78350000D03*
X164200000Y80850000D03*
X164200000Y75850000D03*
%TD*%
D13*
%TO.C,K2*%
X12460000Y68100000D03*
X15000000Y68100000D03*
X17540000Y68100000D03*
%TD*%
D10*
%TO.C,H3*%
X83000000Y85600000D03*
%TD*%
%TO.C,H4*%
X83000000Y69600000D03*
%TD*%
%TO.C,FD1*%
X12000000Y80600000D03*
%TD*%
D14*
%TO.C,R1*%
X8000000Y80850000D03*
X8000000Y75850000D03*
D15*
X17900000Y79600000D03*
X65100000Y79600000D03*
D14*
X8000000Y83350000D03*
X8000000Y78350000D03*
X78000000Y80850000D03*
X78000000Y75850000D03*
%TD*%
D10*
%TO.C,H1*%
X3000000Y69600000D03*
%TD*%
%TO.C,FD2*%
X78000000Y68600000D03*
%TD*%
D13*
%TO.C,K1*%
X22620000Y68100000D03*
X25160000Y68100000D03*
X27700000Y68100000D03*
%TD*%
D10*
%TO.C,H2*%
X3000000Y85600000D03*
%TD*%
D12*
%TO.C,C1*%
X30350000Y69330000D03*
X30350000Y67870000D03*
%TD*%
D11*
%TO.C,C2*%
X9810000Y45670000D03*
X9810000Y47130000D03*
%TD*%
D10*
%TO.C,H1*%
X89200000Y47400000D03*
%TD*%
D12*
%TO.C,C1*%
X116550000Y47130000D03*
X116550000Y45670000D03*
%TD*%
D11*
%TO.C,C2*%
X96010000Y45670000D03*
X96010000Y47130000D03*
%TD*%
D13*
%TO.C,K2*%
X98660000Y45900000D03*
X101200000Y45900000D03*
X103740000Y45900000D03*
%TD*%
D10*
%TO.C,H2*%
X89200000Y63400000D03*
%TD*%
D13*
%TO.C,K1*%
X108820000Y45900000D03*
X111360000Y45900000D03*
X113900000Y45900000D03*
%TD*%
D10*
%TO.C,FD2*%
X164200000Y46400000D03*
%TD*%
%TO.C,H3*%
X169200000Y63400000D03*
%TD*%
%TO.C,H4*%
X169200000Y47400000D03*
%TD*%
%TO.C,FD1*%
X98200000Y58400000D03*
%TD*%
D14*
%TO.C,R1*%
X94200000Y58650000D03*
X94200000Y53650000D03*
D15*
X104100000Y57400000D03*
X151300000Y57400000D03*
D14*
X94200000Y61150000D03*
X94200000Y56150000D03*
X164200000Y58650000D03*
X164200000Y53650000D03*
%TD*%
D13*
%TO.C,K2*%
X12460000Y45900000D03*
X15000000Y45900000D03*
X17540000Y45900000D03*
%TD*%
D10*
%TO.C,H3*%
X83000000Y63400000D03*
%TD*%
%TO.C,H4*%
X83000000Y47400000D03*
%TD*%
%TO.C,FD1*%
X12000000Y58400000D03*
%TD*%
D14*
%TO.C,R1*%
X8000000Y58650000D03*
X8000000Y53650000D03*
D15*
X17900000Y57400000D03*
X65100000Y57400000D03*
D14*
X8000000Y61150000D03*
X8000000Y56150000D03*
X78000000Y58650000D03*
X78000000Y53650000D03*
%TD*%
D10*
%TO.C,H1*%
X3000000Y47400000D03*
%TD*%
%TO.C,FD2*%
X78000000Y46400000D03*
%TD*%
D13*
%TO.C,K1*%
X22620000Y45900000D03*
X25160000Y45900000D03*
X27700000Y45900000D03*
%TD*%
D10*
%TO.C,H2*%
X3000000Y63400000D03*
%TD*%
D12*
%TO.C,C1*%
X30350000Y47130000D03*
X30350000Y45670000D03*
%TD*%
D11*
%TO.C,C2*%
X9810000Y23470000D03*
X9810000Y24930000D03*
%TD*%
D10*
%TO.C,H1*%
X89200000Y25200000D03*
%TD*%
D12*
%TO.C,C1*%
X116550000Y24930000D03*
X116550000Y23470000D03*
%TD*%
D11*
%TO.C,C2*%
X96010000Y23470000D03*
X96010000Y24930000D03*
%TD*%
D13*
%TO.C,K2*%
X98660000Y23700000D03*
X101200000Y23700000D03*
X103740000Y23700000D03*
%TD*%
D10*
%TO.C,H2*%
X89200000Y41200000D03*
%TD*%
D13*
%TO.C,K1*%
X108820000Y23700000D03*
X111360000Y23700000D03*
X113900000Y23700000D03*
%TD*%
D10*
%TO.C,FD2*%
X164200000Y24200000D03*
%TD*%
%TO.C,H3*%
X169200000Y41200000D03*
%TD*%
%TO.C,H4*%
X169200000Y25200000D03*
%TD*%
%TO.C,FD1*%
X98200000Y36200000D03*
%TD*%
D14*
%TO.C,R1*%
X94200000Y36450000D03*
X94200000Y31450000D03*
D15*
X104100000Y35200000D03*
X151300000Y35200000D03*
D14*
X94200000Y38950000D03*
X94200000Y33950000D03*
X164200000Y36450000D03*
X164200000Y31450000D03*
%TD*%
D13*
%TO.C,K2*%
X12460000Y23700000D03*
X15000000Y23700000D03*
X17540000Y23700000D03*
%TD*%
D10*
%TO.C,H3*%
X83000000Y41200000D03*
%TD*%
%TO.C,H4*%
X83000000Y25200000D03*
%TD*%
%TO.C,FD1*%
X12000000Y36200000D03*
%TD*%
D14*
%TO.C,R1*%
X8000000Y36450000D03*
X8000000Y31450000D03*
D15*
X17900000Y35200000D03*
X65100000Y35200000D03*
D14*
X8000000Y38950000D03*
X8000000Y33950000D03*
X78000000Y36450000D03*
X78000000Y31450000D03*
%TD*%
D10*
%TO.C,H1*%
X3000000Y25200000D03*
%TD*%
%TO.C,FD2*%
X78000000Y24200000D03*
%TD*%
D13*
%TO.C,K1*%
X22620000Y23700000D03*
X25160000Y23700000D03*
X27700000Y23700000D03*
%TD*%
D10*
%TO.C,H2*%
X3000000Y41200000D03*
%TD*%
D12*
%TO.C,C1*%
X30350000Y24930000D03*
X30350000Y23470000D03*
%TD*%
D11*
%TO.C,C2*%
X96010000Y1270000D03*
X96010000Y2730000D03*
%TD*%
D13*
%TO.C,K2*%
X98660000Y1500000D03*
X101200000Y1500000D03*
X103740000Y1500000D03*
%TD*%
D10*
%TO.C,H3*%
X169200000Y19000000D03*
%TD*%
%TO.C,H4*%
X169200000Y3000000D03*
%TD*%
%TO.C,FD1*%
X98200000Y14000000D03*
%TD*%
D14*
%TO.C,R1*%
X94200000Y14250000D03*
X94200000Y9250000D03*
D15*
X104100000Y13000000D03*
X151300000Y13000000D03*
D14*
X94200000Y16750000D03*
X94200000Y11750000D03*
X164200000Y14250000D03*
X164200000Y9250000D03*
%TD*%
D10*
%TO.C,H1*%
X89200000Y3000000D03*
%TD*%
%TO.C,FD2*%
X164200000Y2000000D03*
%TD*%
D13*
%TO.C,K1*%
X108820000Y1500000D03*
X111360000Y1500000D03*
X113900000Y1500000D03*
%TD*%
D10*
%TO.C,H2*%
X89200000Y19000000D03*
%TD*%
D12*
%TO.C,C1*%
X116550000Y2730000D03*
X116550000Y1270000D03*
%TD*%
D11*
%TO.C,C2*%
X9810000Y1270000D03*
X9810000Y2730000D03*
%TD*%
D10*
%TO.C,H1*%
X3000000Y3000000D03*
%TD*%
%TO.C,FD2*%
X78000000Y2000000D03*
%TD*%
D14*
%TO.C,R1*%
X8000000Y14250000D03*
X8000000Y9250000D03*
D15*
X17900000Y13000000D03*
X65100000Y13000000D03*
D14*
X8000000Y16750000D03*
X8000000Y11750000D03*
X78000000Y14250000D03*
X78000000Y9250000D03*
%TD*%
D10*
%TO.C,FD1*%
X12000000Y14000000D03*
%TD*%
%TO.C,H4*%
X83000000Y3000000D03*
%TD*%
%TO.C,H3*%
X83000000Y19000000D03*
%TD*%
D12*
%TO.C,C1*%
X30350000Y2730000D03*
X30350000Y1270000D03*
%TD*%
D10*
%TO.C,H2*%
X3000000Y19000000D03*
%TD*%
D13*
%TO.C,K1*%
X22620000Y1500000D03*
X25160000Y1500000D03*
X27700000Y1500000D03*
%TD*%
%TO.C,K2*%
X12460000Y1500000D03*
X15000000Y1500000D03*
X17540000Y1500000D03*
%TD*%
M02*
