%TF.GenerationSoftware,KiCad,Pcbnew,(5.99.0-11441-g1a5e63bcab)*%
%TF.CreationDate,2022-01-11T09:27:26+01:00*%
%TF.ProjectId,Slider_potentiometer,536c6964-6572-45f7-906f-74656e74696f,V1.1.1.*%
%TF.SameCoordinates,PX5f5e100PYe5d5e40*%
%TF.FileFunction,Other,User*%
%FSLAX46Y46*%
G04 Gerber Fmt 4.6, Leading zero omitted, Abs format (unit mm)*
G04 Created by KiCad (PCBNEW (5.99.0-11441-g1a5e63bcab)) date 2022-01-11 09:27:26*
%MOMM*%
%LPD*%
G01*
G04 APERTURE LIST*
%ADD10C,0.400000*%
%ADD11C,0.300000*%
G04 APERTURE END LIST*
D10*
X0Y-100000D02*
X172200000Y-100000D01*
X0Y199700000D02*
X172200000Y199700000D01*
X0Y177500000D02*
X172200000Y177500000D01*
X0Y155300000D02*
X172200000Y155300000D01*
X0Y133100000D02*
X172200000Y133100000D01*
X0Y110900000D02*
X172200000Y110900000D01*
X0Y88700000D02*
X172200000Y88700000D01*
X0Y66500000D02*
X172200000Y66500000D01*
X0Y44300000D02*
X172200000Y44300000D01*
X0Y22100000D02*
X172200000Y22100000D01*
X86100000Y0D02*
X86100000Y199600000D01*
D11*
X32828571Y-1957142D02*
X33828571Y-4957142D01*
X34828571Y-1957142D01*
X35828571Y-3814285D02*
X38114285Y-3814285D01*
X41257142Y-4671428D02*
X41114285Y-4814285D01*
X40685714Y-4957142D01*
X40400000Y-4957142D01*
X39971428Y-4814285D01*
X39685714Y-4528571D01*
X39542857Y-4242857D01*
X39400000Y-3671428D01*
X39400000Y-3242857D01*
X39542857Y-2671428D01*
X39685714Y-2385714D01*
X39971428Y-2100000D01*
X40400000Y-1957142D01*
X40685714Y-1957142D01*
X41114285Y-2100000D01*
X41257142Y-2242857D01*
X42542857Y-1957142D02*
X42542857Y-4385714D01*
X42685714Y-4671428D01*
X42828571Y-4814285D01*
X43114285Y-4957142D01*
X43685714Y-4957142D01*
X43971428Y-4814285D01*
X44114285Y-4671428D01*
X44257142Y-4385714D01*
X44257142Y-1957142D01*
X45257142Y-1957142D02*
X46971428Y-1957142D01*
X46114285Y-4957142D02*
X46114285Y-1957142D01*
M02*
