M48
; DRILL file {KiCad (5.99.0-11441-g1a5e63bcab)} date Tue Jan 11 09:27:28 2022
; FORMAT={-:-/ absolute / metric / decimal}
; #@! TF.CreationDate,2022-01-11T09:27:28+01:00
; #@! TF.GenerationSoftware,Kicad,Pcbnew,(5.99.0-11441-g1a5e63bcab)
; #@! TF.FileFunction,Plated,1,2,PTH
FMAT,2
METRIC
; #@! TA.AperFunction,Plated,PTH,ViaDrill
T1C0.300
; #@! TA.AperFunction,Plated,PTH,ComponentDrill
T2C1.000
; #@! TA.AperFunction,Plated,PTH,ComponentDrill
T3C1.700
%
G90
G05
T1
X8.7Y178.3
X8.7Y156.1
X8.7Y133.9
X8.7Y111.7
X8.7Y89.5
X8.7Y67.3
X8.7Y45.1
X8.7Y22.9
X8.7Y0.7
X9.9Y190.5
X9.9Y168.3
X9.9Y146.1
X9.9Y123.9
X9.9Y101.7
X9.9Y79.5
X9.9Y57.3
X9.9Y35.1
X9.9Y12.9
X10.0Y187.5
X10.0Y165.3
X10.0Y143.1
X10.0Y120.9
X10.0Y98.7
X10.0Y76.5
X10.0Y54.3
X10.0Y32.1
X10.0Y9.9
X18.0Y187.0
X18.0Y164.8
X18.0Y142.6
X18.0Y120.4
X18.0Y98.2
X18.0Y76.0
X18.0Y53.8
X18.0Y31.6
X18.0Y9.4
X20.2Y178.4
X20.2Y156.2
X20.2Y134.0
X20.2Y111.8
X20.2Y89.6
X20.2Y67.4
X20.2Y45.2
X20.2Y23.0
X20.2Y0.8
X23.2Y187.9
X23.2Y165.7
X23.2Y143.5
X23.2Y121.3
X23.2Y99.1
X23.2Y76.9
X23.2Y54.7
X23.2Y32.5
X23.2Y10.3
X27.1Y187.9
X27.1Y165.7
X27.1Y143.5
X27.1Y121.3
X27.1Y99.1
X27.1Y76.9
X27.1Y54.7
X27.1Y32.5
X27.1Y10.3
X29.6Y183.7
X29.6Y161.5
X29.6Y139.3
X29.6Y117.1
X29.6Y94.9
X29.6Y72.7
X29.6Y50.5
X29.6Y28.3
X29.6Y6.1
X29.7Y185.7
X29.7Y163.5
X29.7Y141.3
X29.7Y119.1
X29.7Y96.9
X29.7Y74.7
X29.7Y52.5
X29.7Y30.3
X29.7Y8.1
X31.7Y178.6
X31.7Y156.4
X31.7Y134.2
X31.7Y112.0
X31.7Y89.8
X31.7Y67.6
X31.7Y45.4
X31.7Y23.2
X31.7Y1.0
X94.9Y178.3
X94.9Y156.1
X94.9Y133.9
X94.9Y111.7
X94.9Y89.5
X94.9Y67.3
X94.9Y45.1
X94.9Y22.9
X94.9Y0.7
X96.1Y190.5
X96.1Y168.3
X96.1Y146.1
X96.1Y123.9
X96.1Y101.7
X96.1Y79.5
X96.1Y57.3
X96.1Y35.1
X96.1Y12.9
X96.2Y187.5
X96.2Y165.3
X96.2Y143.1
X96.2Y120.9
X96.2Y98.7
X96.2Y76.5
X96.2Y54.3
X96.2Y32.1
X96.2Y9.9
X104.2Y187.0
X104.2Y164.8
X104.2Y142.6
X104.2Y120.4
X104.2Y98.2
X104.2Y76.0
X104.2Y53.8
X104.2Y31.6
X104.2Y9.4
X106.4Y178.4
X106.4Y156.2
X106.4Y134.0
X106.4Y111.8
X106.4Y89.6
X106.4Y67.4
X106.4Y45.2
X106.4Y23.0
X106.4Y0.8
X109.4Y187.9
X109.4Y165.7
X109.4Y143.5
X109.4Y121.3
X109.4Y99.1
X109.4Y76.9
X109.4Y54.7
X109.4Y32.5
X109.4Y10.3
X113.3Y187.9
X113.3Y165.7
X113.3Y143.5
X113.3Y121.3
X113.3Y99.1
X113.3Y76.9
X113.3Y54.7
X113.3Y32.5
X113.3Y10.3
X115.8Y183.7
X115.8Y161.5
X115.8Y139.3
X115.8Y117.1
X115.8Y94.9
X115.8Y72.7
X115.8Y50.5
X115.8Y28.3
X115.8Y6.1
X115.9Y185.7
X115.9Y163.5
X115.9Y141.3
X115.9Y119.1
X115.9Y96.9
X115.9Y74.7
X115.9Y52.5
X115.9Y30.3
X115.9Y8.1
X117.9Y178.6
X117.9Y156.4
X117.9Y134.2
X117.9Y112.0
X117.9Y89.8
X117.9Y67.6
X117.9Y45.4
X117.9Y23.2
X117.9Y1.0
T2
X8.0Y194.35
X8.0Y191.85
X8.0Y189.35
X8.0Y186.85
X8.0Y172.15
X8.0Y169.65
X8.0Y167.15
X8.0Y164.65
X8.0Y149.95
X8.0Y147.45
X8.0Y144.95
X8.0Y142.45
X8.0Y127.75
X8.0Y125.25
X8.0Y122.75
X8.0Y120.25
X8.0Y105.55
X8.0Y103.05
X8.0Y100.55
X8.0Y98.05
X8.0Y83.35
X8.0Y80.85
X8.0Y78.35
X8.0Y75.85
X8.0Y61.15
X8.0Y58.65
X8.0Y56.15
X8.0Y53.65
X8.0Y38.95
X8.0Y36.45
X8.0Y33.95
X8.0Y31.45
X8.0Y16.75
X8.0Y14.25
X8.0Y11.75
X8.0Y9.25
X12.46Y179.1
X12.46Y156.9
X12.46Y134.7
X12.46Y112.5
X12.46Y90.3
X12.46Y68.1
X12.46Y45.9
X12.46Y23.7
X12.46Y1.5
X15.0Y179.1
X15.0Y156.9
X15.0Y134.7
X15.0Y112.5
X15.0Y90.3
X15.0Y68.1
X15.0Y45.9
X15.0Y23.7
X15.0Y1.5
X17.54Y179.1
X17.54Y156.9
X17.54Y134.7
X17.54Y112.5
X17.54Y90.3
X17.54Y68.1
X17.54Y45.9
X17.54Y23.7
X17.54Y1.5
X22.62Y179.1
X22.62Y156.9
X22.62Y134.7
X22.62Y112.5
X22.62Y90.3
X22.62Y68.1
X22.62Y45.9
X22.62Y23.7
X22.62Y1.5
X25.16Y179.1
X25.16Y156.9
X25.16Y134.7
X25.16Y112.5
X25.16Y90.3
X25.16Y68.1
X25.16Y45.9
X25.16Y23.7
X25.16Y1.5
X27.7Y179.1
X27.7Y156.9
X27.7Y134.7
X27.7Y112.5
X27.7Y90.3
X27.7Y68.1
X27.7Y45.9
X27.7Y23.7
X27.7Y1.5
X78.0Y191.85
X78.0Y186.85
X78.0Y169.65
X78.0Y164.65
X78.0Y147.45
X78.0Y142.45
X78.0Y125.25
X78.0Y120.25
X78.0Y103.05
X78.0Y98.05
X78.0Y80.85
X78.0Y75.85
X78.0Y58.65
X78.0Y53.65
X78.0Y36.45
X78.0Y31.45
X78.0Y14.25
X78.0Y9.25
X94.2Y194.35
X94.2Y191.85
X94.2Y189.35
X94.2Y186.85
X94.2Y172.15
X94.2Y169.65
X94.2Y167.15
X94.2Y164.65
X94.2Y149.95
X94.2Y147.45
X94.2Y144.95
X94.2Y142.45
X94.2Y127.75
X94.2Y125.25
X94.2Y122.75
X94.2Y120.25
X94.2Y105.55
X94.2Y103.05
X94.2Y100.55
X94.2Y98.05
X94.2Y83.35
X94.2Y80.85
X94.2Y78.35
X94.2Y75.85
X94.2Y61.15
X94.2Y58.65
X94.2Y56.15
X94.2Y53.65
X94.2Y38.95
X94.2Y36.45
X94.2Y33.95
X94.2Y31.45
X94.2Y16.75
X94.2Y14.25
X94.2Y11.75
X94.2Y9.25
X98.66Y179.1
X98.66Y156.9
X98.66Y134.7
X98.66Y112.5
X98.66Y90.3
X98.66Y68.1
X98.66Y45.9
X98.66Y23.7
X98.66Y1.5
X101.2Y179.1
X101.2Y156.9
X101.2Y134.7
X101.2Y112.5
X101.2Y90.3
X101.2Y68.1
X101.2Y45.9
X101.2Y23.7
X101.2Y1.5
X103.74Y179.1
X103.74Y156.9
X103.74Y134.7
X103.74Y112.5
X103.74Y90.3
X103.74Y68.1
X103.74Y45.9
X103.74Y23.7
X103.74Y1.5
X108.82Y179.1
X108.82Y156.9
X108.82Y134.7
X108.82Y112.5
X108.82Y90.3
X108.82Y68.1
X108.82Y45.9
X108.82Y23.7
X108.82Y1.5
X111.36Y179.1
X111.36Y156.9
X111.36Y134.7
X111.36Y112.5
X111.36Y90.3
X111.36Y68.1
X111.36Y45.9
X111.36Y23.7
X111.36Y1.5
X113.9Y179.1
X113.9Y156.9
X113.9Y134.7
X113.9Y112.5
X113.9Y90.3
X113.9Y68.1
X113.9Y45.9
X113.9Y23.7
X113.9Y1.5
X164.2Y191.85
X164.2Y186.85
X164.2Y169.65
X164.2Y164.65
X164.2Y147.45
X164.2Y142.45
X164.2Y125.25
X164.2Y120.25
X164.2Y103.05
X164.2Y98.05
X164.2Y80.85
X164.2Y75.85
X164.2Y58.65
X164.2Y53.65
X164.2Y36.45
X164.2Y31.45
X164.2Y14.25
X164.2Y9.25
T3
X17.9Y190.6
X17.9Y168.4
X17.9Y146.2
X17.9Y124.0
X17.9Y101.8
X17.9Y79.6
X17.9Y57.4
X17.9Y35.2
X17.9Y13.0
X65.1Y190.6
X65.1Y168.4
X65.1Y146.2
X65.1Y124.0
X65.1Y101.8
X65.1Y79.6
X65.1Y57.4
X65.1Y35.2
X65.1Y13.0
X104.1Y190.6
X104.1Y168.4
X104.1Y146.2
X104.1Y124.0
X104.1Y101.8
X104.1Y79.6
X104.1Y57.4
X104.1Y35.2
X104.1Y13.0
X151.3Y190.6
X151.3Y168.4
X151.3Y146.2
X151.3Y124.0
X151.3Y101.8
X151.3Y79.6
X151.3Y57.4
X151.3Y35.2
X151.3Y13.0
T0
M30
