M48
; DRILL file {KiCad (5.99.0-11441-g1a5e63bcab)} date Tue Jan 11 09:27:28 2022
; FORMAT={-:-/ absolute / metric / decimal}
; #@! TF.CreationDate,2022-01-11T09:27:28+01:00
; #@! TF.GenerationSoftware,Kicad,Pcbnew,(5.99.0-11441-g1a5e63bcab)
; #@! TF.FileFunction,NonPlated,1,2,NPTH
FMAT,2
METRIC
; #@! TA.AperFunction,NonPlated,NPTH,ComponentDrill
T1C3.200
%
G90
G05
T1
X3.0Y196.6
X3.0Y180.6
X3.0Y174.4
X3.0Y158.4
X3.0Y152.2
X3.0Y136.2
X3.0Y130.0
X3.0Y114.0
X3.0Y107.8
X3.0Y91.8
X3.0Y85.6
X3.0Y69.6
X3.0Y63.4
X3.0Y47.4
X3.0Y41.2
X3.0Y25.2
X3.0Y19.0
X3.0Y3.0
X83.0Y196.6
X83.0Y180.6
X83.0Y174.4
X83.0Y158.4
X83.0Y152.2
X83.0Y136.2
X83.0Y130.0
X83.0Y114.0
X83.0Y107.8
X83.0Y91.8
X83.0Y85.6
X83.0Y69.6
X83.0Y63.4
X83.0Y47.4
X83.0Y41.2
X83.0Y25.2
X83.0Y19.0
X83.0Y3.0
X89.2Y196.6
X89.2Y180.6
X89.2Y174.4
X89.2Y158.4
X89.2Y152.2
X89.2Y136.2
X89.2Y130.0
X89.2Y114.0
X89.2Y107.8
X89.2Y91.8
X89.2Y85.6
X89.2Y69.6
X89.2Y63.4
X89.2Y47.4
X89.2Y41.2
X89.2Y25.2
X89.2Y19.0
X89.2Y3.0
X169.2Y196.6
X169.2Y180.6
X169.2Y174.4
X169.2Y158.4
X169.2Y152.2
X169.2Y136.2
X169.2Y130.0
X169.2Y114.0
X169.2Y107.8
X169.2Y91.8
X169.2Y85.6
X169.2Y69.6
X169.2Y63.4
X169.2Y47.4
X169.2Y41.2
X169.2Y25.2
X169.2Y19.0
X169.2Y3.0
T0
M30
