%TF.GenerationSoftware,KiCad,Pcbnew,(5.99.0-11441-g1a5e63bcab)*%
%TF.CreationDate,2022-01-11T09:27:25+01:00*%
%TF.ProjectId,Slider_potentiometer,536c6964-6572-45f7-906f-74656e74696f,V1.1.1.*%
%TF.SameCoordinates,PX5f5e100PYe5d5e40*%
%TF.FileFunction,Paste,Top*%
%TF.FilePolarity,Positive*%
%FSLAX46Y46*%
G04 Gerber Fmt 4.6, Leading zero omitted, Abs format (unit mm)*
G04 Created by KiCad (PCBNEW (5.99.0-11441-g1a5e63bcab)) date 2022-01-11 09:27:25*
%MOMM*%
%LPD*%
G01*
G04 APERTURE LIST*
%ADD10C,0.200000*%
%ADD11C,1.000000*%
%ADD12R,1.000000X0.660000*%
G04 APERTURE END LIST*
D10*
%TO.C,FD1*%
X5000000Y201600000D02*
G75*
G03*
X5000000Y201600000I-1000000J0D01*
G01*
X169200000Y201600000D02*
G75*
G03*
X169200000Y201600000I-1000000J0D01*
G01*
X169200000Y-2000000D02*
G75*
G03*
X169200000Y-2000000I-1000000J0D01*
G01*
X5000000Y-2000000D02*
G75*
G03*
X5000000Y-2000000I-1000000J0D01*
G01*
%TO.C,FD2*%
X165200000Y179600000D02*
G75*
G03*
X165200000Y179600000I-1000000J0D01*
G01*
%TO.C,FD1*%
X99200000Y191600000D02*
G75*
G03*
X99200000Y191600000I-1000000J0D01*
G01*
X13000000Y191600000D02*
G75*
G03*
X13000000Y191600000I-1000000J0D01*
G01*
%TO.C,FD2*%
X79000000Y179600000D02*
G75*
G03*
X79000000Y179600000I-1000000J0D01*
G01*
X165200000Y157400000D02*
G75*
G03*
X165200000Y157400000I-1000000J0D01*
G01*
%TO.C,FD1*%
X99200000Y169400000D02*
G75*
G03*
X99200000Y169400000I-1000000J0D01*
G01*
X13000000Y169400000D02*
G75*
G03*
X13000000Y169400000I-1000000J0D01*
G01*
%TO.C,FD2*%
X79000000Y157400000D02*
G75*
G03*
X79000000Y157400000I-1000000J0D01*
G01*
X165200000Y135200000D02*
G75*
G03*
X165200000Y135200000I-1000000J0D01*
G01*
%TO.C,FD1*%
X99200000Y147200000D02*
G75*
G03*
X99200000Y147200000I-1000000J0D01*
G01*
X13000000Y147200000D02*
G75*
G03*
X13000000Y147200000I-1000000J0D01*
G01*
%TO.C,FD2*%
X79000000Y135200000D02*
G75*
G03*
X79000000Y135200000I-1000000J0D01*
G01*
X165200000Y113000000D02*
G75*
G03*
X165200000Y113000000I-1000000J0D01*
G01*
%TO.C,FD1*%
X99200000Y125000000D02*
G75*
G03*
X99200000Y125000000I-1000000J0D01*
G01*
X13000000Y125000000D02*
G75*
G03*
X13000000Y125000000I-1000000J0D01*
G01*
%TO.C,FD2*%
X79000000Y113000000D02*
G75*
G03*
X79000000Y113000000I-1000000J0D01*
G01*
X165200000Y90800000D02*
G75*
G03*
X165200000Y90800000I-1000000J0D01*
G01*
%TO.C,FD1*%
X99200000Y102800000D02*
G75*
G03*
X99200000Y102800000I-1000000J0D01*
G01*
X13000000Y102800000D02*
G75*
G03*
X13000000Y102800000I-1000000J0D01*
G01*
%TO.C,FD2*%
X79000000Y90800000D02*
G75*
G03*
X79000000Y90800000I-1000000J0D01*
G01*
X165200000Y68600000D02*
G75*
G03*
X165200000Y68600000I-1000000J0D01*
G01*
%TO.C,FD1*%
X99200000Y80600000D02*
G75*
G03*
X99200000Y80600000I-1000000J0D01*
G01*
X13000000Y80600000D02*
G75*
G03*
X13000000Y80600000I-1000000J0D01*
G01*
%TO.C,FD2*%
X79000000Y68600000D02*
G75*
G03*
X79000000Y68600000I-1000000J0D01*
G01*
X165200000Y46400000D02*
G75*
G03*
X165200000Y46400000I-1000000J0D01*
G01*
%TO.C,FD1*%
X99200000Y58400000D02*
G75*
G03*
X99200000Y58400000I-1000000J0D01*
G01*
X13000000Y58400000D02*
G75*
G03*
X13000000Y58400000I-1000000J0D01*
G01*
%TO.C,FD2*%
X79000000Y46400000D02*
G75*
G03*
X79000000Y46400000I-1000000J0D01*
G01*
X165200000Y24200000D02*
G75*
G03*
X165200000Y24200000I-1000000J0D01*
G01*
%TO.C,FD1*%
X99200000Y36200000D02*
G75*
G03*
X99200000Y36200000I-1000000J0D01*
G01*
X13000000Y36200000D02*
G75*
G03*
X13000000Y36200000I-1000000J0D01*
G01*
%TO.C,FD2*%
X79000000Y24200000D02*
G75*
G03*
X79000000Y24200000I-1000000J0D01*
G01*
%TO.C,FD1*%
X99200000Y14000000D02*
G75*
G03*
X99200000Y14000000I-1000000J0D01*
G01*
%TO.C,FD2*%
X165200000Y2000000D02*
G75*
G03*
X165200000Y2000000I-1000000J0D01*
G01*
X79000000Y2000000D02*
G75*
G03*
X79000000Y2000000I-1000000J0D01*
G01*
%TO.C,FD1*%
X13000000Y14000000D02*
G75*
G03*
X13000000Y14000000I-1000000J0D01*
G01*
%TD*%
D11*
%TO.C,FD1*%
X4000000Y201600000D03*
%TD*%
%TO.C,FD1*%
X168200000Y201600000D03*
%TD*%
%TO.C,FD1*%
X168200000Y-2000000D03*
%TD*%
%TO.C,FD1*%
X4000000Y-2000000D03*
%TD*%
D12*
%TO.C,C2*%
X9810000Y178870000D03*
X9810000Y180330000D03*
%TD*%
%TO.C,C1*%
X116550000Y180330000D03*
X116550000Y178870000D03*
%TD*%
%TO.C,C2*%
X96010000Y178870000D03*
X96010000Y180330000D03*
%TD*%
D11*
%TO.C,FD2*%
X164200000Y179600000D03*
%TD*%
%TO.C,FD1*%
X98200000Y191600000D03*
%TD*%
%TO.C,FD1*%
X12000000Y191600000D03*
%TD*%
%TO.C,FD2*%
X78000000Y179600000D03*
%TD*%
D12*
%TO.C,C1*%
X30350000Y180330000D03*
X30350000Y178870000D03*
%TD*%
%TO.C,C2*%
X9810000Y156670000D03*
X9810000Y158130000D03*
%TD*%
%TO.C,C1*%
X116550000Y158130000D03*
X116550000Y156670000D03*
%TD*%
%TO.C,C2*%
X96010000Y156670000D03*
X96010000Y158130000D03*
%TD*%
D11*
%TO.C,FD2*%
X164200000Y157400000D03*
%TD*%
%TO.C,FD1*%
X98200000Y169400000D03*
%TD*%
%TO.C,FD1*%
X12000000Y169400000D03*
%TD*%
%TO.C,FD2*%
X78000000Y157400000D03*
%TD*%
D12*
%TO.C,C1*%
X30350000Y158130000D03*
X30350000Y156670000D03*
%TD*%
%TO.C,C2*%
X9810000Y134470000D03*
X9810000Y135930000D03*
%TD*%
%TO.C,C1*%
X116550000Y135930000D03*
X116550000Y134470000D03*
%TD*%
%TO.C,C2*%
X96010000Y134470000D03*
X96010000Y135930000D03*
%TD*%
D11*
%TO.C,FD2*%
X164200000Y135200000D03*
%TD*%
%TO.C,FD1*%
X98200000Y147200000D03*
%TD*%
%TO.C,FD1*%
X12000000Y147200000D03*
%TD*%
%TO.C,FD2*%
X78000000Y135200000D03*
%TD*%
D12*
%TO.C,C1*%
X30350000Y135930000D03*
X30350000Y134470000D03*
%TD*%
%TO.C,C2*%
X9810000Y112270000D03*
X9810000Y113730000D03*
%TD*%
%TO.C,C1*%
X116550000Y113730000D03*
X116550000Y112270000D03*
%TD*%
%TO.C,C2*%
X96010000Y112270000D03*
X96010000Y113730000D03*
%TD*%
D11*
%TO.C,FD2*%
X164200000Y113000000D03*
%TD*%
%TO.C,FD1*%
X98200000Y125000000D03*
%TD*%
%TO.C,FD1*%
X12000000Y125000000D03*
%TD*%
%TO.C,FD2*%
X78000000Y113000000D03*
%TD*%
D12*
%TO.C,C1*%
X30350000Y113730000D03*
X30350000Y112270000D03*
%TD*%
%TO.C,C2*%
X9810000Y90070000D03*
X9810000Y91530000D03*
%TD*%
%TO.C,C1*%
X116550000Y91530000D03*
X116550000Y90070000D03*
%TD*%
%TO.C,C2*%
X96010000Y90070000D03*
X96010000Y91530000D03*
%TD*%
D11*
%TO.C,FD2*%
X164200000Y90800000D03*
%TD*%
%TO.C,FD1*%
X98200000Y102800000D03*
%TD*%
%TO.C,FD1*%
X12000000Y102800000D03*
%TD*%
%TO.C,FD2*%
X78000000Y90800000D03*
%TD*%
D12*
%TO.C,C1*%
X30350000Y91530000D03*
X30350000Y90070000D03*
%TD*%
%TO.C,C2*%
X9810000Y67870000D03*
X9810000Y69330000D03*
%TD*%
%TO.C,C1*%
X116550000Y69330000D03*
X116550000Y67870000D03*
%TD*%
%TO.C,C2*%
X96010000Y67870000D03*
X96010000Y69330000D03*
%TD*%
D11*
%TO.C,FD2*%
X164200000Y68600000D03*
%TD*%
%TO.C,FD1*%
X98200000Y80600000D03*
%TD*%
%TO.C,FD1*%
X12000000Y80600000D03*
%TD*%
%TO.C,FD2*%
X78000000Y68600000D03*
%TD*%
D12*
%TO.C,C1*%
X30350000Y69330000D03*
X30350000Y67870000D03*
%TD*%
%TO.C,C2*%
X9810000Y45670000D03*
X9810000Y47130000D03*
%TD*%
%TO.C,C1*%
X116550000Y47130000D03*
X116550000Y45670000D03*
%TD*%
%TO.C,C2*%
X96010000Y45670000D03*
X96010000Y47130000D03*
%TD*%
D11*
%TO.C,FD2*%
X164200000Y46400000D03*
%TD*%
%TO.C,FD1*%
X98200000Y58400000D03*
%TD*%
%TO.C,FD1*%
X12000000Y58400000D03*
%TD*%
%TO.C,FD2*%
X78000000Y46400000D03*
%TD*%
D12*
%TO.C,C1*%
X30350000Y47130000D03*
X30350000Y45670000D03*
%TD*%
%TO.C,C2*%
X9810000Y23470000D03*
X9810000Y24930000D03*
%TD*%
%TO.C,C1*%
X116550000Y24930000D03*
X116550000Y23470000D03*
%TD*%
%TO.C,C2*%
X96010000Y23470000D03*
X96010000Y24930000D03*
%TD*%
D11*
%TO.C,FD2*%
X164200000Y24200000D03*
%TD*%
%TO.C,FD1*%
X98200000Y36200000D03*
%TD*%
%TO.C,FD1*%
X12000000Y36200000D03*
%TD*%
%TO.C,FD2*%
X78000000Y24200000D03*
%TD*%
D12*
%TO.C,C1*%
X30350000Y24930000D03*
X30350000Y23470000D03*
%TD*%
%TO.C,C2*%
X96010000Y1270000D03*
X96010000Y2730000D03*
%TD*%
D11*
%TO.C,FD1*%
X98200000Y14000000D03*
%TD*%
%TO.C,FD2*%
X164200000Y2000000D03*
%TD*%
D12*
%TO.C,C1*%
X116550000Y2730000D03*
X116550000Y1270000D03*
%TD*%
%TO.C,C2*%
X9810000Y1270000D03*
X9810000Y2730000D03*
%TD*%
D11*
%TO.C,FD2*%
X78000000Y2000000D03*
%TD*%
%TO.C,FD1*%
X12000000Y14000000D03*
%TD*%
D12*
%TO.C,C1*%
X30350000Y2730000D03*
X30350000Y1270000D03*
%TD*%
M02*
